<?xml version="1.0" encoding="utf-8"?>
<!-- Generator: Adobe Illustrator 19.2.1, SVG Export Plug-In . SVG Version: 6.00 Build 0)  -->
<svg version="1.1"
	 id="svg2" xmlns:cc="http://creativecommons.org/ns#" xmlns:dc="http://purl.org/dc/elements/1.1/" xmlns:rdf="http://www.w3.org/1999/02/22-rdf-syntax-ns#" xmlns:svg="http://www.w3.org/2000/svg"
	 xmlns="http://www.w3.org/2000/svg" xmlns:xlink="http://www.w3.org/1999/xlink" x="0px" y="0px" viewBox="0 0 2000 2000"
	 style="enable-background:new 0 0 2000 2000;" xml:space="preserve">
<g>
	<g id="layer1" transform="translate(0,947.63784)">
		<path id="rect4187" d="M429.7-737.6C214.9-737.6,40-563.4,40-349.1v803c0,214.3,174.9,388.5,389.7,388.5h1140.7
			c214.7,0,389.7-174.2,389.7-388.5v-803c0-214.3-174.9-388.5-389.7-388.5H429.7z M429.7-617.6h1140.7
			c150.5,0,269.7,118.8,269.7,268.5v803c0,149.7-119.1,268.5-269.7,268.5H429.7C279.1,722.4,160,603.5,160,453.9v-803
			C160-498.8,279.1-617.6,429.7-617.6z"/>
		<g id="layer1-9" transform="matrix(0.62376697,0,0,0.62376697,123.3598,-185.77569)">
		</g>
	</g>
	
		<image style="overflow:visible;" width="128" height="128" xlink:href="../../../../../Users/shv0424/Desktop/Research stuff docs/images/sensor/paint.png"  transform="matrix(5.9766 0 0 4.3125 329 400.89)">
	</image>
</g>
</svg>
